<svg width="1400" height="900" viewBox="0 0 1400 900" fill="none" xmlns="http://www.w3.org/2000/svg">
  <rect width="1400" height="900" fill="#f8fafc"/>
  <rect x="115" y="105" width="1170" height="690" rx="48" fill="#ffffff"/>
  <rect x="210" y="180" width="440" height="540" rx="42" fill="#dff1ff"/>
  <path d="M430 220c-84 0-152 68-152 152 0 121 108 245 136 277a21 21 0 0 0 31 0c29-32 137-156 137-277 0-84-68-152-152-152Zm0 87a66 66 0 1 1 0 132 66 66 0 0 1 0-132Z" fill="#0898dc"/>
  <path d="M430 503v155" stroke="#0f4567" stroke-width="32" stroke-linecap="round"/>
  <path d="M372 574h116M382 631h96" stroke="#0f4567" stroke-width="22" stroke-linecap="round"/>
  <rect x="760" y="220" width="390" height="76" rx="22" fill="#eef3f7"/>
  <rect x="760" y="345" width="300" height="76" rx="22" fill="#eef3f7"/>
  <rect x="760" y="470" width="430" height="76" rx="22" fill="#eef3f7"/>
  <circle cx="980" cy="655" r="64" fill="#b7e4ff"/>
  <path d="M945 655h70M980 620v70" stroke="#0f4567" stroke-width="16" stroke-linecap="round"/>
</svg>
